<?xml version="1.0" encoding="UTF-8"?>
<svg id="Layer_2" data-name="Layer 2" xmlns="http://www.w3.org/2000/svg" viewBox="0 0 601.25 678.62">
  <defs>
    <style>
      .cls-1 {
        fill: #d22701;
      }

      .cls-2 {
        fill: #ff670e;
      }

      .cls-3 {
        fill: #4e070c;
      }

      .cls-4 {
        fill: #fde4ce;
      }

      .cls-5 {
        fill: #aad15f;
      }

      .cls-6 {
        fill: #42210b;
      }
    </style>
  </defs>
  <g id="Layer_1-2" data-name="Layer 1">
    <g>
      <g>
        <path class="cls-6" d="M114.88,396.78h396.59v197.83c0,46.37-37.64,84.01-84.01,84.01h-228.56c-46.37,0-84.01-37.64-84.01-84.01v-197.83h0Z"/>
        <path class="cls-6" d="M511.47,396.78h60.89c15.95,0,28.89,12.95,28.89,28.89h0c0,15.95-12.95,28.89-28.89,28.89h-60.89v-57.79h0Z"/>
        <path class="cls-6" d="M25.1,396.78h60.89c15.95,0,28.89,12.95,28.89,28.89h0c0,15.95-12.95,28.89-28.89,28.89H25.1v-57.79h0Z" transform="translate(139.98 851.36) rotate(-180)"/>
      </g>
      <path class="cls-1" d="M96.72,165.77c-.77,2.47-6.06-.28-18.97,1.96-6.88,1.19-8.86,1.34-29.83,11.68-9.04,4.46-14.17,3.79-16.12,3.83-13.45.24-19.48-7.08-20.62-8.04-2.05-1.73-6.64-5.72-9.25-12.71-.87-2.33-3.35-9.3-.83-17.58,2.91-9.57,10.48-14.22,12.76-15.57,10.23-6.06,20.59-3.7,22.8-3.2,3.34.76,5.59,1.86,9.49,3.78,8.86,4.34,14.75,9.23,16.63,10.77,19.17,15.66,35.25,20.87,33.93,25.09Z"/>
      <path class="cls-1" d="M142.19,370.26c-1.92,2.92-7.74-2.62-25.29-4.54-9.35-1.02-11.97-1.57-42.97,3.99-13.36,2.4-19.75-.38-22.29-1.06-17.5-4.71-22.58-16.44-23.69-18.11-2-3.01-6.46-9.88-7.22-19.91-.25-3.34-.86-13.29,5.48-23.06,7.34-11.31,18.87-14.5,22.33-15.4,15.5-4.03,28.04,2.89,30.7,4.36,4.04,2.23,6.54,4.5,10.88,8.43,9.85,8.92,15.65,17.45,17.51,20.15,18.97,27.43,37.84,40.17,34.56,45.15Z"/>
      <g>
        <path class="cls-4" d="M432.73,360c-1.66-1.15-.43-2.31.76-3.18,29.77-19.31,56.08-52.93,60.56-91.84.87-5.7,1.11-14.35,1.88-18.24.77-3.68,2-5.2,5.14-3.91,4.09,2.04,7.75,6.23,13.47,11,10.14,8.76,22.36,19.4,28.99,31.62,9.25,17.37,8.7,41.15-1.11,58.64-14.86,26.69-43.82,38.02-72.47,28.97-10.47-2.95-29.08-8.72-37.12-12.98l-.11-.08Z"/>
        <path class="cls-1" d="M329.3,368.25c3.27-2.85,13.67-5.61,19.72-8.4,18.75-7.58,36.72-18.5,48.79-34.92,15.86-22.17,22.14-51.99,18.1-78.76-5.16-33.35-36.25-59.55-69.67-62.81-21.15-2.33-41.99,2.79-62,10.19-25.27,9.82-51.35,22.32-79.1,18.98-46.04-4.21-76.61-47.74-63.45-92.74,8.72-31.76,39.63-57.33,72.53-54.17,28.37,3.95,1.82,24.79-6.05,38.09-12.19,18.07-9.31,44.73,10.47,55.92,16.36,9.73,37.58,6.37,56.19.18,53.55-19.09,82.9-46.62,141.61-18.66,36.08,16.92,60.52,66.08,57.52,104.58-3.36,43.99-37.02,89.18-74.38,110.45-14.89,8.39-32.47,12.17-49.46,13.08-9.51.58-17.64.52-19.98-.23-.44-.11-.87-.33-.85-.73v-.05Z"/>
        <path class="cls-3" d="M323.69,355.24c6.66,3.6,21.1-7.39,31.53-15.73,16.37-13.56,29.26-30.27,35.32-50.34,9.54-26.7-2.51-58.46-25.91-74.36-14.82-10.02-32.13-10.41-46.68-8.65-28.89,4.45-54.03,22.34-82.66,27.86-22.86,4.51-59.28,4.07-81.55-10.89-14.02-9.04-24.31-23.15-38.29-32.38-26.16-18.26-56.17-1.07-58.45,29.72-2.93,38.58,31.89,67.39,65.44,79.31,34.41,13.38,76.29,5.21,109.68-10.26,24.53-11.02,42.48-23.91,68.08-32.16,18.37-6.21,57.56-14.68,59.25,11.1,2.25,21.99-43.12,75.33-35.86,86.7l.1.09Z"/>
        <path class="cls-2" d="M226.43,129.49c3.4-36.1,91.86-98.7,124.62-104.55,28.69-6.09,58.24-5.93,85.09,8.9,16.96,9.85,38.63,24.62,37.08,46.4-.95,14.72-11.36,29.88-26.16,33.9-17.09,5.12-30.27-4.75-45.92-9.46-25.07-8.18-46.13-5.13-71.81,6.24-22.7,9.01-42.18,22.29-65.76,28.52-11.71,2.8-36,7.91-37.14-9.62v-.34Z"/>
        <path class="cls-5" d="M298.43,366.92c1.07.82,4.16-4.44,8.02-12.54,2.73-5.7,6.03-13.13,8.45-18.64,6.05-12.86,11.45-31.41,1.86-43.59-10.14-8.8-28.78-5.32-39.89-.34-14.57,6.42-28.68,17.27-41.18,24.09-24.68,12.96-52.45,13.8-76.46,12.3-7.97-.27-13.99-2.3-21.66-4.39-3.14-.85-8.45-.86-8.97,1.78-.57,2.89,1.73,4.45,5.43,10.13,5.42,8.31,10.4,15.62,17.37,22.81,13.96,14.81,35.17,17.97,54.5,18.29,19.68,1.02,42.47-3.08,58.22-17.83,12.66-10.75,15.75-18.8,20.81-28.96,4.14-8.31,9.47-11.16,14.31-4.18,7.38,11-1.99,32.02-.86,41.02l.05.05Z"/>
        <circle class="cls-5" cx="491.03" cy="142.36" r="32.68"/>
        <circle class="cls-4" cx="257.92" cy="32.68" r="32.68"/>
        <circle class="cls-5" cx="156.65" cy="50.49" r="22.55"/>
        <path class="cls-2" d="M128.2,168.78c2.09-2.07-8.08-9.61-11.9-26.86-2.55-11.55-2.98-30.71,3.45-45.66,1.17-2.71,4.2-9.1,4.6-18.04.08-1.8.23-5.69-.77-10.36-2.52-11.8-10.4-19.38-13.81-22.26-10.04-8.48-21.04-9.72-24.94-9.98-13.92-.9-23.88,5.28-27.63,7.67-4.62,2.96-15.08,10.76-19.95,25.33-.79,2.37-5.71,17.81,1.15,33.38,5.62,12.76,15,16.22,35.69,29.55,34.38,22.15,51.18,40.12,54.11,37.22Z"/>
        <circle class="cls-2" cx="554.41" cy="373.94" r="16.72"/>
        <path class="cls-2" d="M494.37,219.4c-.09,2.59,5.71,2.5,16.86,9.39,5.85,3.61,6.45,5,24.71,19.6,7.87,6.29,8.79,6.86,10.29,7.55,12.24,5.57,24.38,1.13,25.78.6,2.5-.96,8.16-3.2,12.92-8.95,1.59-1.91,6.23-7.68,6.59-16.32.41-10-5.2-16.88-6.91-18.91-7.65-9.1-18.21-10.29-20.46-10.55-3.4-.39-5.89-.09-10.21.43-9.79,1.17-16.97,3.84-19.26,4.68-23.26,8.46-40.16,8.06-40.32,12.48Z"/>
      </g>
    </g>
  </g>
</svg>